<mxfile host="app.diagrams.net" modified="2023-08-30T09:46:10.249Z" agent="Mozilla/5.0 (Macintosh; Intel Mac OS X 10_15_7) AppleWebKit/537.36 (KHTML, like Gecko) Chrome/116.0.0.0 Safari/537.36" etag="SKTCXeBwQMo56UNuCd7P" version="21.6.9" type="github">
  <diagram name="페이지-1" id="S15PcVQ3OeSXQwLC3Ehx">
    <mxGraphModel dx="1674" dy="838" grid="1" gridSize="10" guides="1" tooltips="1" connect="1" arrows="1" fold="1" page="1" pageScale="1" pageWidth="1169" pageHeight="827" math="0" shadow="0">
      <root>
        <mxCell id="0" />
        <mxCell id="1" parent="0" />
      </root>
    </mxGraphModel>
  </diagram>
</mxfile>
